<svg xmlns="http://www.w3.org/2000/svg" version="1.1" xmlns:xlink="http://www.w3.org/1999/xlink" width="1000" height="1000"><g clip-path="url(#SvgjsClipPath1512)"><rect width="1000" height="1000" fill="#ffffff"></rect><g transform="matrix(1.0810810810810811,0,0,1.0810810810810811,276.7567567567568,100)"><svg xmlns="http://www.w3.org/2000/svg" version="1.1" xmlns:xlink="http://www.w3.org/1999/xlink" width="413" height="740"><svg width="413" height="740" viewBox="0 0 413 740" fill="none" xmlns="http://www.w3.org/2000/svg">
<path d="M215.732 170.422C223.338 174.903 227.945 182.332 232.123 189.859C235.988 196.605 240.096 202.697 245.248 208.547C246.006 209.448 246.764 210.349 247.545 211.277C261.724 227.646 280.098 236.182 299.484 244.755C345.225 264.989 381.6 295.81 400.3 343.214C417.048 387.862 416.263 441.306 396.467 484.879C387.914 503.09 377.085 518.023 363.248 532.547C362.326 533.531 362.326 533.531 361.385 534.535C357.305 538.771 352.821 542.432 348.24 546.113C345.721 548.162 343.257 550.26 340.804 552.388C334.936 557.464 328.839 562.115 322.56 566.672C305.796 578.288 305.796 578.288 294.248 594.547C293.854 597.775 294.264 600.455 295.248 603.547C300.019 609.159 306.604 612.73 312.935 616.297C321.55 621.309 328.916 626.835 336.248 633.547C337.126 634.295 338.004 635.042 338.908 635.813C359.375 653.401 384.231 688.217 386.451 716.098C386.58 723.701 385.909 728.395 380.873 734.359C376.281 738.186 372.183 738.831 366.292 739.163C365.633 739.201 364.974 739.238 364.295 739.277C357.714 739.626 351.136 739.692 344.546 739.687C343.253 739.69 341.96 739.693 340.629 739.696C337.088 739.704 333.548 739.706 330.008 739.707C326.171 739.709 322.335 739.716 318.499 739.723C310.138 739.737 301.777 739.743 293.416 739.747C288.19 739.75 282.964 739.754 277.738 739.759C263.248 739.771 248.759 739.781 234.27 739.784C232.883 739.785 232.883 739.785 231.468 739.785C230.541 739.785 229.615 739.786 228.66 739.786C226.783 739.786 224.906 739.787 223.028 739.787C222.097 739.787 221.166 739.788 220.206 739.788C205.091 739.792 189.976 739.809 174.862 739.832C159.318 739.856 143.774 739.869 128.23 739.87C119.513 739.871 110.795 739.876 102.078 739.895C94.6629 739.91 87.2481 739.915 79.8332 739.907C76.0528 739.903 72.2725 739.904 68.4921 739.918C64.3906 739.933 60.2894 739.925 56.1879 739.914C54.9987 739.922 53.8095 739.93 52.5842 739.939C44.6973 739.892 38.1212 738.989 31.3729 734.734C27.4458 730.692 26.0561 727.124 25.8104 721.547C27.0109 690.5 51.7207 657.018 73.4042 636.113C82.7025 627.722 92.7332 620.728 103.32 614.049C112.507 608.812 112.507 608.812 118.248 600.547C118.844 594.383 118.299 591.473 114.248 586.547C112.061 584.109 112.061 584.109 109.248 581.547C108.629 580.946 108.01 580.345 107.373 579.727C99.6557 572.465 91.0642 566.425 82.5101 560.201C61.4067 544.769 40.5072 527.753 26.2479 505.547C25.8517 504.931 25.4555 504.314 25.0472 503.679C8.91453 478.022 1.2316 446.832 0.315294 416.738C0.269761 415.257 0.21416 413.777 0.149278 412.297C-1.64207 369.513 12.7223 328.406 41.4354 296.734C42.2656 295.841 43.0957 294.948 43.951 294.027C45.916 291.905 47.8104 289.748 49.6854 287.547C69.1537 265.368 93.2633 252.912 119.961 241.13C133.46 235.165 145.74 228.949 157.248 219.547C158.06 218.888 158.872 218.229 159.709 217.551C169.853 208.947 176.465 198.259 183.047 186.85C190.579 174.099 199.66 164.761 215.732 170.422Z" fill="#186DC5"></path>
<path d="M289.248 458.547C293.535 460.563 296.606 462.584 299.248 466.547C300.435 475.863 298.769 481.85 293.26 489.199C290.994 492.052 288.654 494.811 286.248 497.547C285.631 498.249 285.013 498.952 284.377 499.676C265.768 519.485 237.561 530.574 210.76 531.867C192.351 532.404 174.902 529.647 158.248 521.547C157.599 521.231 156.95 520.916 156.281 520.59C138.533 511.736 121.649 497.95 113.248 479.547C111.757 475.073 111.505 471.228 113.436 466.859C116.228 463.297 118.939 460.983 123.248 459.547C129.085 458.996 131.642 460.011 136.248 463.547C138.298 465.693 140.142 467.983 141.998 470.297C156.009 487.153 174.502 496.725 196.248 499.547C220.163 501.275 243.007 494.329 261.248 478.547C266.746 473.379 271.908 467.989 276.678 462.141C280.399 458.364 284.08 457.944 289.248 458.547Z" fill="#F9BF26"></path>
<path d="M147.247 340.547C153.415 344.518 156.983 349.587 159.247 356.547C162.18 371.377 161.854 386.681 160.497 401.672C160.436 402.441 160.374 403.211 160.311 404.003C159.352 413.12 155.322 419.797 148.247 425.547C141.889 430.295 134.952 430.593 127.247 429.547C119.179 427.115 113.283 421.979 109.189 414.652C106.252 408.204 106.067 401.987 106.009 395.039C106.001 394.118 105.993 393.197 105.985 392.247C105.971 390.299 105.96 388.351 105.952 386.402C105.941 384.426 105.92 382.45 105.891 380.474C105.506 354.754 105.506 354.754 114.435 345.109C123.917 335.364 135.452 333.518 147.247 340.547Z" fill="#F9F9F8"></path>
<path d="M292.247 338.547C299.648 343.238 303.303 350.266 305.291 358.648C306.32 363.395 306.57 367.944 306.583 372.789C306.59 373.638 306.596 374.487 306.603 375.362C306.613 377.145 306.618 378.928 306.618 380.711C306.622 383.409 306.659 386.104 306.696 388.801C306.778 401.115 306.032 411.536 297.118 420.891C290.365 426.869 283.637 427.968 274.833 427.887C268.118 427.25 263.559 424.184 258.935 419.422C253.097 411.737 251.635 402.961 251.716 393.543C251.712 392.539 251.708 391.535 251.704 390.501C251.702 388.396 251.709 386.291 251.726 384.186C251.747 380.988 251.726 377.793 251.7 374.596C251.703 372.536 251.708 370.477 251.716 368.418C251.704 367.005 251.704 367.005 251.691 365.564C251.823 356.15 254.735 348.091 261.278 341.242C269.784 333.918 282.488 332.992 292.247 338.547Z" fill="#F8F8F8"></path>
<path d="M113.763 55.8125C115.018 56.7952 116.262 57.7908 117.498 58.7968C118.902 59.8969 120.31 60.9931 121.72 62.0859C122.455 62.656 123.19 63.2261 123.948 63.8134C127.842 66.7482 131.889 69.452 135.935 72.1718C143.613 77.3615 150.969 82.8134 158.248 88.5468C159.088 89.1708 159.929 89.7947 160.795 90.4375C166.531 94.7108 172.92 99.5649 175.248 106.547C175.619 111.558 175.366 114.538 172.248 118.547C169.67 121.422 168.247 121.547 164.33 121.91C158.16 121.811 153.116 119.416 147.56 116.922C146.447 116.435 145.333 115.949 144.186 115.448C140.529 113.838 136.887 112.197 133.248 110.547C132.607 110.257 131.966 109.968 131.305 109.67C126.693 107.587 122.092 105.48 117.498 103.359C116.885 103.078 116.273 102.797 115.642 102.507C108.868 99.3872 102.199 96.098 95.6697 92.4961C94.5569 91.8846 93.4441 91.2732 92.2976 90.6433C88.3555 87.9334 85.4159 84.883 83.2478 80.5468C82.2607 72.4239 83.6899 66.333 88.2478 59.5468C94.497 52.5835 105.971 50.2343 113.763 55.8125Z" fill="#FCBE22"></path>
<path d="M171.248 147.859C174.545 150.642 175.129 152.519 175.623 156.797C174.826 164.77 171.004 169.373 164.986 174.426C161.315 177.269 157.548 179.965 153.748 182.631C149.543 185.588 145.462 188.664 141.436 191.859C140.87 192.306 140.304 192.754 139.721 193.214C137.186 195.219 134.653 197.225 132.123 199.235C129.901 200.995 127.669 202.74 125.436 204.484C124.755 205.028 124.073 205.572 123.372 206.132C116.978 211.097 109.819 215.523 101.447 215.129C97.0553 213.967 94.2555 210.798 91.248 207.547C90.5036 206.777 90.5036 206.777 89.7441 205.992C86.1518 202.024 83.439 197.759 83.1152 192.312C83.4307 186.782 85.055 183.288 89.248 179.547C92.5568 177.406 96.0301 175.667 99.5605 173.922C100.572 173.409 101.584 172.896 102.627 172.368C104.758 171.29 106.893 170.218 109.031 169.152C112.138 167.602 115.233 166.031 118.326 164.453C123.286 161.932 128.267 159.455 133.265 157.009C135.274 156.024 137.28 155.032 139.282 154.034C142.217 152.576 145.167 151.151 148.123 149.734C149.432 149.076 149.432 149.076 150.768 148.404C157.846 145.084 163.997 144.687 171.248 147.859Z" fill="#FCBE22"></path>
<path d="M314.81 54.7344C321.99 58.5199 326.314 62.9272 329.248 70.5469C330.228 75.2009 329.797 79.1763 327.513 83.3711C323.667 89.2299 317.467 91.7553 311.373 94.7969C310.114 95.444 308.857 96.0931 307.6 96.7441C305.05 98.062 302.495 99.3684 299.934 100.666C296.552 102.384 293.197 104.152 289.849 105.937C256.364 123.777 256.364 123.777 247.248 122.547C243.347 120.597 241.659 119.163 239.248 115.547C238.54 111.228 238.765 107.578 240.623 103.609C247.024 95.4722 255.07 88.8033 263.248 82.5469C264.484 81.5826 265.72 80.6177 266.955 79.6523C274.848 73.5164 282.876 67.602 291.06 61.8594C291.914 61.2591 292.768 60.6589 293.648 60.0405C300.921 54.9778 305.689 51.6939 314.81 54.7344Z" fill="#FCBE22"></path>
<path d="M275.311 154.797C282.419 158.596 289.57 162.207 296.874 165.609C298.367 166.311 299.861 167.012 301.354 167.714C303.565 168.752 305.779 169.782 308.005 170.79C323.444 177.782 323.444 177.782 327.249 185.547C328.885 190.455 329.368 195.069 327.19 199.891C323.517 205.704 318.773 211.613 312.311 214.375C306.152 215.716 301.332 212.76 296.249 209.547C288.451 204.224 281.283 198.111 274.042 192.071C267.797 186.903 261.331 182.079 254.756 177.341C240.411 166.969 240.411 166.969 239.249 161.547C238.789 156.72 238.761 154.522 240.936 150.172C250.493 139.324 265.315 149.408 275.311 154.797Z" fill="#FCBE22"></path>
<path d="M206.186 0.046875C206.946 0.0314062 207.706 0.0159375 208.489 0C214.127 0.0385165 218.56 1.35965 223.249 4.54688C229.495 12.6064 227.315 23.3214 226.261 32.7852C226.157 33.746 226.053 34.7069 225.946 35.6968C225.725 37.725 225.503 39.7529 225.278 41.7805C224.942 44.812 224.615 47.8443 224.29 50.877C223.755 55.8086 223.189 60.7357 222.596 65.6607C222.364 67.5855 222.139 69.5109 221.918 71.437C221.599 74.1787 221.25 76.9153 220.893 79.6523C220.803 80.4646 220.712 81.2768 220.618 82.1136C219.843 87.707 218.243 90.5346 214.249 94.5469C210.991 96.8589 208.186 97.0194 204.249 96.5469C200.352 94.4074 197.556 92.3435 195.249 88.5469C194.648 86.0531 194.218 83.703 193.874 81.1719C193.759 80.3918 193.644 79.6118 193.525 78.8081C191.878 67.4036 190.432 55.9661 188.962 44.5376C188.857 43.7205 188.751 42.9033 188.642 42.0614C188.443 40.515 188.244 38.9683 188.048 37.4215C187.575 33.7614 186.985 30.162 186.249 26.5469C185.729 19.4095 185.385 12.6886 188.69 6.19531C193.806 0.785182 199.1 -0.0966433 206.186 0.046875Z" fill="#FCBE22"></path>
<path d="M130.248 459.547C130.578 460.867 130.908 462.187 131.248 463.547C129.69 464.224 128.127 464.888 126.561 465.547C125.69 465.918 124.82 466.289 123.924 466.672C121.191 467.566 119.101 467.711 116.248 467.547C115.918 468.207 115.588 468.867 115.248 469.547C114.588 469.217 113.928 468.887 113.248 468.547C114.743 464.742 116.942 462.885 120.248 460.547C123.721 459.389 126.609 459.478 130.248 459.547Z" fill="#F1C84D"></path>
<path d="M214.248 495.547C216.888 496.207 219.528 496.867 222.248 497.547C216.837 501.154 210.322 500.728 203.998 500.734C203.292 500.747 202.585 500.759 201.857 500.771C198.099 500.782 196.454 500.684 193.248 498.547C203.148 498.052 203.148 498.052 213.248 497.547C213.578 496.887 213.908 496.227 214.248 495.547Z" fill="#1C5FD9"></path>
<path d="M197.248 170.547C198.238 170.877 199.228 171.207 200.248 171.547C199.588 171.547 198.928 171.547 198.248 171.547C198.042 172.083 197.836 172.619 197.623 173.172C195.716 176.467 193.2 179.141 190.248 181.547C189.588 181.547 188.928 181.547 188.248 181.547C187.588 183.197 186.928 184.847 186.248 186.547C185.918 185.557 185.588 184.567 185.248 183.547C188.066 178.306 192.383 173.899 197.248 170.547Z" fill="#135EC0"></path>
<path d="M120.248 456.547C122.041 456.829 123.833 457.123 125.623 457.422C126.621 457.584 127.619 457.747 128.646 457.914C131.248 458.547 131.248 458.547 133.248 460.547C132.27 460.529 132.27 460.529 131.271 460.512C126.472 460.462 121.97 460.553 117.248 461.547C117.908 461.217 118.568 460.887 119.248 460.547C119.9 458.522 119.9 458.522 120.248 456.547Z" fill="#0F5FD9"></path>
<path d="M128.248 460.547C131.265 460.687 133.486 460.84 135.76 462.949C136.981 464.436 138.121 465.988 139.248 467.547C135.948 466.557 132.648 465.567 129.248 464.547C129.578 463.887 129.908 463.227 130.248 462.547C129.588 461.887 128.928 461.227 128.248 460.547Z" fill="#F0C830"></path>
<path d="M270.248 510.547C270.248 511.537 270.248 512.527 270.248 513.547C269.588 513.547 268.928 513.547 268.248 513.547C268.248 514.537 268.248 515.527 268.248 516.547C264.443 518.344 263.542 518.62 259.248 517.547C262.878 515.237 266.508 512.927 270.248 510.547Z" fill="#105CDF"></path>
<path d="M125.248 495.547C129.522 497.13 131.513 500.053 134.248 503.547C131.248 503.547 131.248 503.547 129.643 502.305C129.121 501.766 128.598 501.227 128.061 500.672C127.531 500.138 127.001 499.605 126.455 499.055C125.248 497.547 125.248 497.547 125.248 495.547Z" fill="#E3C132"></path>
<path d="M262.248 477.547C262.908 477.877 263.568 478.207 264.248 478.547C263.258 480.032 263.258 480.032 262.248 481.547C261.566 482.873 260.896 484.204 260.248 485.547C260.248 484.887 260.248 484.227 260.248 483.547C258.268 484.207 256.288 484.867 254.248 485.547C256.915 482.88 259.581 480.214 262.248 477.547Z" fill="#FBCD17"></path>
<path d="M120.248 468.547C119.588 468.547 118.928 468.547 118.248 468.547C117.918 470.197 117.588 471.847 117.248 473.547C116.258 473.877 115.268 474.207 114.248 474.547C114.248 472.567 114.248 470.587 114.248 468.547C116.739 467.301 117.659 467.77 120.248 468.547Z" fill="#F8BF39"></path>
</svg></svg></g></g><defs><clipPath id="SvgjsClipPath1512"><rect width="1000" height="1000" x="0" y="0" rx="200" ry="200"></rect></clipPath></defs></svg>